<svg width="193" height="30" viewBox="0 0 193 30" fill="none" xmlns="http://www.w3.org/2000/svg">
<path d="M18.7701 3.47367H3.90798V11.7632L12.6586 12.6564L16.678 15.2369H3.90798V29.3882H0V0L15.7184 1.26532L18.7701 3.47367ZM36.6916 11.3881H36.4942C35.9416 11.2566 35.4022 11.1645 34.8758 11.1119C34.3626 11.0457 33.7507 11.0126 33.0402 11.0126C31.8954 11.0126 30.7902 11.2691 29.7244 11.7823C28.6585 12.2822 27.6322 12.9336 26.6454 13.7363L25.38 26.9313L22.9348 29.3876V7.34149L26.3476 4.58751L26.6454 10.5981C28.1191 9.41383 29.4152 8.57833 30.5337 8.09148C31.6652 7.59153 32.8166 7.34149 33.9877 7.34149C34.6324 7.34149 35.0995 7.36191 35.389 7.40137C35.6785 7.42811 37.6759 8.60329 38.2548 8.69544L36.6916 11.3881ZM56.6065 29.3882L54.4043 28.0484L52.9156 27.0395C52.5866 27.2631 52.1393 27.579 51.5735 27.9868C51.0208 28.3816 50.4814 28.6973 49.955 28.9341C49.3367 29.2367 48.6261 29.4867 47.8234 29.6841C47.0207 29.8945 46.0799 29.9998 45.001 29.9998C43.0141 29.9998 41.3298 29.3418 39.9482 28.0261C38.5666 26.7103 37.8758 25.0327 37.8758 22.9932C37.8758 21.3222 38.2312 19.9735 38.9417 18.9471C39.6655 17.9077 40.6918 17.0919 42.0207 16.4998C43.3628 15.9077 44.9747 15.5064 46.8563 15.2958C48.738 15.0853 50.7577 14.9274 52.9157 14.8221V14.2497C52.9157 13.4075 52.7643 12.7102 52.4617 12.1576C52.1722 11.6049 51.7511 11.1708 51.1985 10.855C50.6721 10.5524 50.0406 10.3484 49.3037 10.2431C48.5668 10.1374 47.7971 10.0852 46.9944 10.0852C46.0207 10.0852 44.9352 10.2169 43.7378 10.48C42.5404 10.7301 41.3035 11.0985 40.0272 11.5854H39.8299L41.1697 7.81558C41.8934 7.61825 41.5996 7.4012 42.9681 7.16428C44.3365 6.92735 45.6852 6.80898 47.0142 6.80898C48.5669 6.80898 49.9156 6.94061 51.0603 7.20376C52.2183 7.4538 53.2183 7.88804 54.0604 8.50637C54.8894 9.11161 55.521 9.89452 55.9552 10.8551C56.3895 11.8156 56.6065 13.0064 56.6065 14.4274L56.6065 29.3882ZM52.9156 23.9605V17.8223C51.7841 17.8885 50.4485 17.9872 48.909 18.1183C47.3826 18.2498 46.1721 18.4407 45.2773 18.6907C44.2114 18.9933 43.3496 19.4671 42.6917 20.1118C42.0339 20.7434 41.7049 21.6183 41.7049 22.7368C41.7049 24 42.0865 24.9539 42.8497 25.5986C43.6129 26.2302 44.7774 26.546 46.3432 26.546C47.6458 26.546 48.8367 26.2959 49.9156 25.796C50.9946 25.2828 51.9945 24.671 52.9156 23.9605ZM94.5833 25.1455L92.2125 29.3882V16.8355C92.2125 15.8882 92.1667 14.9737 92.0744 14.0921C91.9954 13.2105 91.8179 12.5066 91.5415 11.9803C91.2388 11.4145 90.8046 10.9869 90.2388 10.6974C89.673 10.4079 88.8572 10.2631 87.7914 10.2631C86.7519 10.2631 85.7124 10.5263 84.6729 11.0526C83.6334 11.5658 82.5939 12.2236 81.5544 13.0263C81.5939 13.3289 81.627 13.6842 81.6537 14.0921C81.6804 14.4869 81.6932 14.8816 81.6932 15.2764L80.7256 25.5922L77.9826 29.3882V16.8355C77.9826 15.8619 77.9368 14.9408 77.8445 14.0724C77.7656 13.1907 77.588 12.4868 77.3116 11.9605C77.0089 11.3948 76.5747 10.9738 76.0089 10.6974C75.4431 10.4079 74.6273 10.2631 73.5615 10.2631C72.5483 10.2631 71.5285 10.5132 70.5022 11.0131C69.4891 11.5131 68.4758 12.1513 67.4627 12.9276L66.1973 26.9318L63.7515 29.3881V7.34212L67.9087 5.258L67.4621 9.78946C68.62 8.82891 69.7713 8.07897 70.9161 7.53949C72.074 7.00008 73.3043 6.7303 74.6069 6.7303C76.107 6.7303 77.3767 7.04602 78.4162 7.67761C79.4688 8.3092 80.2518 9.18414 80.765 10.3026C82.265 9.03943 83.6335 8.13157 84.8703 7.57893C86.1072 7.01316 87.4296 6.73025 88.8375 6.73025C91.2586 6.73025 93.0416 7.46713 94.1863 8.94079C95.3442 10.4013 95.9232 12.4474 95.9232 15.079L94.5833 25.1455ZM121.522 18.75H105.279C105.279 20.1053 105.483 21.2895 105.89 22.3027C106.298 23.3027 106.858 24.125 107.568 24.7698C108.252 25.4014 109.062 25.875 109.996 26.1908C110.943 26.5067 111.983 26.6645 113.114 26.6645C114.614 26.6645 116.121 26.3685 117.634 25.7764C119.16 25.1712 120.246 24.5791 120.891 24.0001L122.299 23.0001L121.088 28.0462C119.838 28.5725 118.562 29.0132 117.259 29.3685C115.956 29.7238 114.588 29.9014 113.154 29.9014C109.496 29.9014 106.64 28.9145 104.588 26.9409C102.535 24.9541 101.509 22.1382 101.509 18.4935C101.509 14.8882 102.489 12.0264 104.45 9.90801C106.423 7.78959 109.015 6.73035 112.226 6.73035C115.2 6.73035 117.489 7.59875 119.095 9.33562C120.713 11.0725 121.522 13.5396 121.522 16.7369L121.522 18.75ZM118.121 17.5395C118.107 15.5922 117.403 12.454 116.43 11.3882C115.47 10.3224 114.002 9.78951 112.029 9.78951C110.042 9.78951 108.456 10.375 107.272 11.5461C106.101 12.7171 105.437 14.1711 105.279 15.9079L118.121 17.5395ZM145.582 25.8899L146.687 29.3883L136.858 17.704H131.352L130.086 26.6342L127.444 29.3883V4.85651e-05H135.674C137.45 4.85651e-05 138.931 0.118456 140.115 0.355254C141.299 0.578938 142.365 0.986828 143.312 1.57895C144.378 2.25 145.207 3.09866 145.799 4.12502C146.405 5.13816 146.707 6.42764 146.707 7.99343C146.707 10.1119 146.174 11.8882 145.108 13.3224C144.043 14.7434 142.575 15.8158 140.707 16.5395L145.582 25.8899ZM142.622 8.26972C142.622 7.42756 142.47 6.68419 142.168 6.03946C141.878 5.38152 141.391 4.82885 140.707 4.38155C140.141 4 139.47 3.73687 138.694 3.59212C137.917 3.43425 137.003 3.35532 135.95 3.35532H131.351V14.4474H135.299C136.536 14.4474 137.615 14.3417 138.536 14.1317C139.457 13.908 140.24 13.5001 140.885 12.908C141.477 12.3553 141.911 11.7238 142.187 11.0133C142.477 10.2895 142.622 9.37494 142.622 8.26972ZM173.056 18.375C173.056 21.9671 172.135 24.8026 170.293 26.8816C168.451 28.9605 165.984 30 162.892 30C159.773 30 157.293 28.9605 155.451 26.8816C153.622 24.8026 152.707 21.9671 152.707 18.375C152.707 14.7829 153.622 11.9473 155.451 9.86838C157.293 7.77628 159.773 6.73025 162.892 6.73025C165.984 6.73025 168.451 7.77621 170.293 9.86838C172.135 11.9473 173.056 14.7829 173.056 18.375ZM169.227 18.375C169.227 15.5197 168.668 13.4013 167.55 12.0197C166.431 10.625 165.027 10.1509 163.041 10.1509C161.027 10.1509 159.313 10.625 158.194 12.0197C157.089 13.4013 156.536 15.5197 156.536 18.375C156.536 21.1382 157.096 23.2368 158.214 24.671C159.332 26.0921 160.892 26.8027 162.892 26.8027C164.865 26.8027 166.412 26.0988 167.53 24.6908C168.662 23.2697 169.227 21.1645 169.227 18.375ZM191.983 25.0711L192.813 29.3882L186.557 20.921L180.335 27.2296L175.938 29.3882L184.543 18.3947L176.017 7.34207L179.578 9.2029L186.912 15.671L193 6.89547L192.877 11.0637L188.827 18.1973L191.983 25.0711Z" fill="url(#paint0_linear_81_395)"/>
<defs>
<linearGradient id="paint0_linear_81_395" x1="-7.63879e-06" y1="14.9999" x2="198.083" y2="14.9999" gradientUnits="userSpaceOnUse">
<stop stop-color="#800000"/>
<stop offset="1" stop-color="#FF920F"/>
</linearGradient>
</defs>
</svg>
